<mxfile host="Electron" agent="Mozilla/5.0 (X11; Linux x86_64) AppleWebKit/537.36 (KHTML, like Gecko) draw.io/24.7.8 Chrome/128.0.6613.36 Electron/32.0.1 Safari/537.36" scale="1" border="30" version="24.7.8">
  <diagram name="Page-1" id="CroHgVdFuoJ0acyNspCT">
    <mxGraphModel dx="1434" dy="838" grid="1" gridSize="10" guides="1" tooltips="1" connect="1" arrows="1" fold="1" page="1" pageScale="1" pageWidth="850" pageHeight="1100" math="0" shadow="0">
      <root>
        <mxCell id="0" />
        <mxCell id="1" parent="0" />
        <mxCell id="haQOm0JPxAf6Th63QRBq-7" value="" style="rounded=0;whiteSpace=wrap;html=1;movable=0;resizable=0;rotatable=0;deletable=0;editable=0;locked=1;connectable=0;" parent="1" vertex="1">
          <mxGeometry x="15" y="90" width="820" height="540" as="geometry" />
        </mxCell>
        <mxCell id="r-gD-Gs38Y6d4uTrMPf2-1" value="" style="rounded=1;whiteSpace=wrap;html=1;fillColor=#fff2cc;strokeColor=#d6b656;" parent="1" vertex="1">
          <mxGeometry x="449.13" y="309.75" width="138.75" height="220.25" as="geometry" />
        </mxCell>
        <mxCell id="XlUpvViyqWthu9aLgR9a-38" value="VLAN 10&lt;br&gt;(users)" style="rounded=1;whiteSpace=wrap;html=1;fillColor=#d5e8d4;strokeColor=none;" parent="1" vertex="1">
          <mxGeometry x="265" y="324.75" width="160" height="210" as="geometry" />
        </mxCell>
        <mxCell id="XlUpvViyqWthu9aLgR9a-37" value="VLAN 50&lt;br&gt;(server)" style="rounded=1;whiteSpace=wrap;html=1;fillColor=#dae8fc;strokeColor=none;" parent="1" vertex="1">
          <mxGeometry x="615" y="324.75" width="160" height="220" as="geometry" />
        </mxCell>
        <mxCell id="9ZcEJlxh2sgAqNR-cpZu-1" value="" style="shape=mxgraph.cisco.computers_and_peripherals.macintosh;sketch=0;html=1;pointerEvents=1;dashed=0;fillColor=#036897;strokeColor=#ffffff;strokeWidth=2;verticalLabelPosition=bottom;verticalAlign=top;align=center;outlineConnect=0;" parent="1" vertex="1">
          <mxGeometry x="315" y="341" width="99" height="64" as="geometry" />
        </mxCell>
        <mxCell id="9ZcEJlxh2sgAqNR-cpZu-2" value="" style="shape=mxgraph.cisco.computers_and_peripherals.macintosh;sketch=0;html=1;pointerEvents=1;dashed=0;fillColor=#036897;strokeColor=#ffffff;strokeWidth=2;verticalLabelPosition=bottom;verticalAlign=top;align=center;outlineConnect=0;" parent="1" vertex="1">
          <mxGeometry x="315" y="453.5" width="99" height="64" as="geometry" />
        </mxCell>
        <mxCell id="XlUpvViyqWthu9aLgR9a-42" style="edgeStyle=orthogonalEdgeStyle;rounded=0;orthogonalLoop=1;jettySize=auto;html=1;exitX=0;exitY=0.5;exitDx=0;exitDy=0;exitPerimeter=0;entryX=0.875;entryY=0.5;entryDx=0;entryDy=0;entryPerimeter=0;endArrow=none;endFill=0;" parent="1" source="9ZcEJlxh2sgAqNR-cpZu-5" target="XlUpvViyqWthu9aLgR9a-39" edge="1">
          <mxGeometry relative="1" as="geometry" />
        </mxCell>
        <mxCell id="9ZcEJlxh2sgAqNR-cpZu-5" value="" style="fontColor=#0066CC;verticalAlign=top;verticalLabelPosition=bottom;labelPosition=center;align=center;html=1;outlineConnect=0;fillColor=#CCCCCC;strokeColor=#6881B3;gradientColor=none;gradientDirection=north;strokeWidth=2;shape=mxgraph.networks.firewall;" parent="1" vertex="1">
          <mxGeometry x="470.76" y="198.5" width="95.5" height="90" as="geometry" />
        </mxCell>
        <mxCell id="9ZcEJlxh2sgAqNR-cpZu-4" value="" style="shape=mxgraph.cisco.routers.router;sketch=0;html=1;pointerEvents=1;dashed=0;fillColor=#036897;strokeColor=#ffffff;strokeWidth=2;verticalLabelPosition=bottom;verticalAlign=top;align=center;outlineConnect=0;" parent="1" vertex="1">
          <mxGeometry x="479.5" y="103.5" width="78" height="53" as="geometry" />
        </mxCell>
        <mxCell id="XlUpvViyqWthu9aLgR9a-2" value="" style="shape=mxgraph.cisco.servers.fileserver;sketch=0;html=1;pointerEvents=1;dashed=0;fillColor=#036897;strokeColor=#ffffff;strokeWidth=2;verticalLabelPosition=bottom;verticalAlign=top;align=center;outlineConnect=0;" parent="1" vertex="1">
          <mxGeometry x="765" y="200" width="60" height="81" as="geometry" />
        </mxCell>
        <mxCell id="XlUpvViyqWthu9aLgR9a-3" value="" style="shape=mxgraph.cisco.servers.fileserver;sketch=0;html=1;pointerEvents=1;dashed=0;fillColor=#036897;strokeColor=#ffffff;strokeWidth=2;verticalLabelPosition=bottom;verticalAlign=top;align=center;outlineConnect=0;" parent="1" vertex="1">
          <mxGeometry x="645" y="332.5" width="60" height="81" as="geometry" />
        </mxCell>
        <mxCell id="XlUpvViyqWthu9aLgR9a-4" value="" style="shape=mxgraph.cisco.switches.workgroup_switch;sketch=0;html=1;pointerEvents=1;dashed=0;fillColor=#036897;strokeColor=#ffffff;strokeWidth=2;verticalLabelPosition=bottom;verticalAlign=top;align=center;outlineConnect=0;" parent="1" vertex="1">
          <mxGeometry x="468" y="348.5" width="101" height="50" as="geometry" />
        </mxCell>
        <mxCell id="XlUpvViyqWthu9aLgR9a-6" style="edgeStyle=orthogonalEdgeStyle;rounded=0;orthogonalLoop=1;jettySize=auto;html=1;exitX=0.16;exitY=0.55;exitDx=0;exitDy=0;exitPerimeter=0;entryX=1;entryY=0.5;entryDx=0;entryDy=0;entryPerimeter=0;endArrow=none;endFill=0;" parent="1" source="XlUpvViyqWthu9aLgR9a-34" target="9ZcEJlxh2sgAqNR-cpZu-5" edge="1">
          <mxGeometry relative="1" as="geometry" />
        </mxCell>
        <mxCell id="XlUpvViyqWthu9aLgR9a-7" style="edgeStyle=orthogonalEdgeStyle;rounded=0;orthogonalLoop=1;jettySize=auto;html=1;exitX=0.5;exitY=1;exitDx=0;exitDy=0;exitPerimeter=0;entryX=0.5;entryY=0;entryDx=0;entryDy=0;entryPerimeter=0;endArrow=none;endFill=0;" parent="1" source="9ZcEJlxh2sgAqNR-cpZu-5" target="XlUpvViyqWthu9aLgR9a-4" edge="1">
          <mxGeometry relative="1" as="geometry" />
        </mxCell>
        <mxCell id="XlUpvViyqWthu9aLgR9a-8" style="rounded=0;orthogonalLoop=1;jettySize=auto;html=1;exitX=0.98;exitY=0.5;exitDx=0;exitDy=0;exitPerimeter=0;entryX=0;entryY=0.5;entryDx=0;entryDy=0;entryPerimeter=0;endArrow=none;endFill=0;" parent="1" source="XlUpvViyqWthu9aLgR9a-4" target="XlUpvViyqWthu9aLgR9a-3" edge="1">
          <mxGeometry relative="1" as="geometry" />
        </mxCell>
        <mxCell id="XlUpvViyqWthu9aLgR9a-9" style="edgeStyle=orthogonalEdgeStyle;rounded=0;orthogonalLoop=1;jettySize=auto;html=1;exitX=0.5;exitY=1;exitDx=0;exitDy=0;exitPerimeter=0;entryX=0.5;entryY=0;entryDx=0;entryDy=0;entryPerimeter=0;endArrow=none;endFill=0;" parent="1" source="9ZcEJlxh2sgAqNR-cpZu-4" target="9ZcEJlxh2sgAqNR-cpZu-5" edge="1">
          <mxGeometry relative="1" as="geometry" />
        </mxCell>
        <mxCell id="XlUpvViyqWthu9aLgR9a-16" value="" style="shape=mxgraph.cisco.servers.fileserver;sketch=0;html=1;pointerEvents=1;dashed=0;fillColor=#036897;strokeColor=#ffffff;strokeWidth=2;verticalLabelPosition=bottom;verticalAlign=top;align=center;outlineConnect=0;" parent="1" vertex="1">
          <mxGeometry x="645" y="453.5" width="60" height="81" as="geometry" />
        </mxCell>
        <mxCell id="XlUpvViyqWthu9aLgR9a-17" style="rounded=0;orthogonalLoop=1;jettySize=auto;html=1;exitX=0.98;exitY=0.5;exitDx=0;exitDy=0;exitPerimeter=0;entryX=0;entryY=0.5;entryDx=0;entryDy=0;entryPerimeter=0;endArrow=none;endFill=0;" parent="1" source="XlUpvViyqWthu9aLgR9a-4" target="XlUpvViyqWthu9aLgR9a-16" edge="1">
          <mxGeometry relative="1" as="geometry" />
        </mxCell>
        <mxCell id="XlUpvViyqWthu9aLgR9a-18" style="rounded=0;orthogonalLoop=1;jettySize=auto;html=1;exitX=0.84;exitY=0.5;exitDx=0;exitDy=0;exitPerimeter=0;entryX=0;entryY=0.5;entryDx=0;entryDy=0;entryPerimeter=0;endArrow=none;endFill=0;" parent="1" source="9ZcEJlxh2sgAqNR-cpZu-1" target="XlUpvViyqWthu9aLgR9a-4" edge="1">
          <mxGeometry relative="1" as="geometry" />
        </mxCell>
        <mxCell id="XlUpvViyqWthu9aLgR9a-19" style="rounded=0;orthogonalLoop=1;jettySize=auto;html=1;exitX=0.84;exitY=0.5;exitDx=0;exitDy=0;exitPerimeter=0;entryX=0;entryY=0.5;entryDx=0;entryDy=0;entryPerimeter=0;endArrow=none;endFill=0;" parent="1" source="9ZcEJlxh2sgAqNR-cpZu-2" target="XlUpvViyqWthu9aLgR9a-4" edge="1">
          <mxGeometry relative="1" as="geometry" />
        </mxCell>
        <mxCell id="XlUpvViyqWthu9aLgR9a-35" value="" style="edgeStyle=orthogonalEdgeStyle;rounded=0;orthogonalLoop=1;jettySize=auto;html=1;exitX=0;exitY=0.5;exitDx=0;exitDy=0;exitPerimeter=0;entryX=0.875;entryY=0.5;entryDx=0;entryDy=0;entryPerimeter=0;endArrow=none;endFill=0;" parent="1" source="XlUpvViyqWthu9aLgR9a-2" target="XlUpvViyqWthu9aLgR9a-34" edge="1">
          <mxGeometry relative="1" as="geometry">
            <mxPoint x="715" y="258.75" as="sourcePoint" />
            <mxPoint x="566" y="258.75" as="targetPoint" />
          </mxGeometry>
        </mxCell>
        <mxCell id="XlUpvViyqWthu9aLgR9a-34" value="DMZ" style="ellipse;shape=cloud;whiteSpace=wrap;html=1;" parent="1" vertex="1">
          <mxGeometry x="675" y="210.5" width="76" height="60" as="geometry" />
        </mxCell>
        <mxCell id="XlUpvViyqWthu9aLgR9a-39" value="WAN 2" style="ellipse;shape=cloud;whiteSpace=wrap;html=1;" parent="1" vertex="1">
          <mxGeometry x="235" y="203.5" width="120" height="80" as="geometry" />
        </mxCell>
        <mxCell id="XlUpvViyqWthu9aLgR9a-40" value="WAN 1" style="ellipse;shape=cloud;whiteSpace=wrap;html=1;" parent="1" vertex="1">
          <mxGeometry x="235" y="90" width="120" height="80" as="geometry" />
        </mxCell>
        <mxCell id="XlUpvViyqWthu9aLgR9a-41" style="edgeStyle=orthogonalEdgeStyle;rounded=0;orthogonalLoop=1;jettySize=auto;html=1;exitX=0;exitY=0.5;exitDx=0;exitDy=0;exitPerimeter=0;entryX=0.875;entryY=0.5;entryDx=0;entryDy=0;entryPerimeter=0;endArrow=none;endFill=0;" parent="1" source="9ZcEJlxh2sgAqNR-cpZu-4" target="XlUpvViyqWthu9aLgR9a-40" edge="1">
          <mxGeometry relative="1" as="geometry" />
        </mxCell>
        <mxCell id="r-gD-Gs38Y6d4uTrMPf2-2" value="&lt;font style=&quot;font-size: 10px;&quot;&gt;VLAN 30 (management)&lt;/font&gt;" style="text;html=1;strokeColor=none;fillColor=none;align=center;verticalAlign=middle;whiteSpace=wrap;rounded=0;" parent="1" vertex="1">
          <mxGeometry x="455" y="313.75" width="60" height="30" as="geometry" />
        </mxCell>
        <mxCell id="r-gD-Gs38Y6d4uTrMPf2-3" value="&lt;font color=&quot;#ffffff&quot;&gt;Web server&lt;/font&gt;" style="text;html=1;strokeColor=none;fillColor=none;align=center;verticalAlign=middle;whiteSpace=wrap;rounded=0;" parent="1" vertex="1">
          <mxGeometry x="758" y="240.5" width="60" height="30" as="geometry" />
        </mxCell>
        <mxCell id="r-gD-Gs38Y6d4uTrMPf2-4" value="&amp;nbsp;Active Directory" style="text;html=1;strokeColor=none;fillColor=none;align=center;verticalAlign=middle;whiteSpace=wrap;rounded=0;" parent="1" vertex="1">
          <mxGeometry x="705" y="358" width="60" height="30" as="geometry" />
        </mxCell>
        <mxCell id="r-gD-Gs38Y6d4uTrMPf2-5" value="Monitoring server" style="text;html=1;strokeColor=none;fillColor=none;align=center;verticalAlign=middle;whiteSpace=wrap;rounded=0;" parent="1" vertex="1">
          <mxGeometry x="705" y="479" width="60" height="30" as="geometry" />
        </mxCell>
        <mxCell id="r-gD-Gs38Y6d4uTrMPf2-13" value="Légende" style="swimlane;whiteSpace=wrap;html=1;" parent="1" vertex="1">
          <mxGeometry x="15" y="90" width="220" height="480.25" as="geometry" />
        </mxCell>
        <mxCell id="r-gD-Gs38Y6d4uTrMPf2-16" value="" style="shape=mxgraph.cisco.routers.router;sketch=0;html=1;pointerEvents=1;dashed=0;fillColor=#036897;strokeColor=#ffffff;strokeWidth=2;verticalLabelPosition=bottom;verticalAlign=top;align=center;outlineConnect=0;" parent="r-gD-Gs38Y6d4uTrMPf2-13" vertex="1">
          <mxGeometry x="20" y="41.75" width="50" height="38.25" as="geometry" />
        </mxCell>
        <mxCell id="r-gD-Gs38Y6d4uTrMPf2-17" value="&lt;font style=&quot;font-size: 18px;&quot;&gt;Routeur&lt;/font&gt;" style="text;html=1;strokeColor=none;fillColor=none;align=center;verticalAlign=middle;whiteSpace=wrap;rounded=0;" parent="r-gD-Gs38Y6d4uTrMPf2-13" vertex="1">
          <mxGeometry x="90" y="45.88" width="60" height="30" as="geometry" />
        </mxCell>
        <mxCell id="r-gD-Gs38Y6d4uTrMPf2-18" value="" style="shape=mxgraph.cisco.switches.workgroup_switch;sketch=0;html=1;pointerEvents=1;dashed=0;fillColor=#036897;strokeColor=#ffffff;strokeWidth=2;verticalLabelPosition=bottom;verticalAlign=top;align=center;outlineConnect=0;" parent="r-gD-Gs38Y6d4uTrMPf2-13" vertex="1">
          <mxGeometry x="20" y="100" width="50" height="30" as="geometry" />
        </mxCell>
        <mxCell id="r-gD-Gs38Y6d4uTrMPf2-19" value="&lt;font style=&quot;font-size: 18px;&quot;&gt;Commutateur&lt;/font&gt;" style="text;html=1;strokeColor=none;fillColor=none;align=center;verticalAlign=middle;whiteSpace=wrap;rounded=0;" parent="r-gD-Gs38Y6d4uTrMPf2-13" vertex="1">
          <mxGeometry x="110" y="100" width="60" height="30" as="geometry" />
        </mxCell>
        <mxCell id="r-gD-Gs38Y6d4uTrMPf2-20" value="" style="fontColor=#0066CC;verticalAlign=top;verticalLabelPosition=bottom;labelPosition=center;align=center;html=1;outlineConnect=0;fillColor=#CCCCCC;strokeColor=#6881B3;gradientColor=none;gradientDirection=north;strokeWidth=2;shape=mxgraph.networks.firewall;" parent="r-gD-Gs38Y6d4uTrMPf2-13" vertex="1">
          <mxGeometry x="25" y="150" width="40" height="40" as="geometry" />
        </mxCell>
        <mxCell id="r-gD-Gs38Y6d4uTrMPf2-21" value="&lt;font style=&quot;font-size: 18px;&quot;&gt;Pare-feu&lt;/font&gt;" style="text;html=1;strokeColor=none;fillColor=none;align=center;verticalAlign=middle;whiteSpace=wrap;rounded=0;" parent="r-gD-Gs38Y6d4uTrMPf2-13" vertex="1">
          <mxGeometry x="80" y="155" width="80" height="30" as="geometry" />
        </mxCell>
        <mxCell id="r-gD-Gs38Y6d4uTrMPf2-22" value="" style="shape=mxgraph.cisco.computers_and_peripherals.macintosh;sketch=0;html=1;pointerEvents=1;dashed=0;fillColor=#036897;strokeColor=#ffffff;strokeWidth=2;verticalLabelPosition=bottom;verticalAlign=top;align=center;outlineConnect=0;" parent="r-gD-Gs38Y6d4uTrMPf2-13" vertex="1">
          <mxGeometry x="15.5" y="270" width="59" height="46.5" as="geometry" />
        </mxCell>
        <mxCell id="r-gD-Gs38Y6d4uTrMPf2-23" value="&lt;font style=&quot;font-size: 18px;&quot;&gt;PC&lt;/font&gt;" style="text;html=1;strokeColor=none;fillColor=none;align=center;verticalAlign=middle;whiteSpace=wrap;rounded=0;" parent="r-gD-Gs38Y6d4uTrMPf2-13" vertex="1">
          <mxGeometry x="80" y="270" width="40" height="30" as="geometry" />
        </mxCell>
        <mxCell id="r-gD-Gs38Y6d4uTrMPf2-24" value="" style="shape=mxgraph.cisco.servers.fileserver;sketch=0;html=1;pointerEvents=1;dashed=0;fillColor=#036897;strokeColor=#ffffff;strokeWidth=2;verticalLabelPosition=bottom;verticalAlign=top;align=center;outlineConnect=0;" parent="r-gD-Gs38Y6d4uTrMPf2-13" vertex="1">
          <mxGeometry x="25" y="204.88" width="40" height="45.25" as="geometry" />
        </mxCell>
        <mxCell id="r-gD-Gs38Y6d4uTrMPf2-25" value="&lt;font style=&quot;font-size: 18px;&quot;&gt;Serveur&lt;/font&gt;" style="text;html=1;strokeColor=none;fillColor=none;align=center;verticalAlign=middle;whiteSpace=wrap;rounded=0;" parent="r-gD-Gs38Y6d4uTrMPf2-13" vertex="1">
          <mxGeometry x="80" y="212.5" width="70" height="30" as="geometry" />
        </mxCell>
        <mxCell id="r-gD-Gs38Y6d4uTrMPf2-15" value="DMZ" style="ellipse;shape=cloud;whiteSpace=wrap;html=1;" parent="r-gD-Gs38Y6d4uTrMPf2-13" vertex="1">
          <mxGeometry x="20" y="328" width="50" height="40" as="geometry" />
        </mxCell>
        <mxCell id="r-gD-Gs38Y6d4uTrMPf2-28" value="&lt;span style=&quot;font-size: 18px;&quot;&gt;Zone DMZ&lt;/span&gt;" style="text;html=1;strokeColor=none;fillColor=none;align=center;verticalAlign=middle;whiteSpace=wrap;rounded=0;" parent="r-gD-Gs38Y6d4uTrMPf2-13" vertex="1">
          <mxGeometry x="80" y="333" width="100" height="30" as="geometry" />
        </mxCell>
        <mxCell id="r-gD-Gs38Y6d4uTrMPf2-29" value="WAN" style="ellipse;shape=cloud;whiteSpace=wrap;html=1;" parent="r-gD-Gs38Y6d4uTrMPf2-13" vertex="1">
          <mxGeometry x="15" y="383" width="60" height="40" as="geometry" />
        </mxCell>
        <mxCell id="r-gD-Gs38Y6d4uTrMPf2-30" value="&lt;span style=&quot;font-size: 18px;&quot;&gt;Accès au réseau principal&lt;/span&gt;" style="text;html=1;strokeColor=none;fillColor=none;align=center;verticalAlign=middle;whiteSpace=wrap;rounded=0;" parent="r-gD-Gs38Y6d4uTrMPf2-13" vertex="1">
          <mxGeometry x="80" y="388" width="130" height="30" as="geometry" />
        </mxCell>
        <mxCell id="dHYF3nfBO12UTB2RZxej-1" value="" style="endArrow=none;html=1;rounded=0;" parent="r-gD-Gs38Y6d4uTrMPf2-13" edge="1">
          <mxGeometry width="50" height="50" relative="1" as="geometry">
            <mxPoint x="20" y="448.25" as="sourcePoint" />
            <mxPoint x="70" y="448.25" as="targetPoint" />
          </mxGeometry>
        </mxCell>
        <mxCell id="dHYF3nfBO12UTB2RZxej-2" value="&lt;span style=&quot;font-size: 18px;&quot;&gt;Liaison RJ45&lt;/span&gt;" style="text;html=1;strokeColor=none;fillColor=none;align=center;verticalAlign=middle;whiteSpace=wrap;rounded=0;" parent="r-gD-Gs38Y6d4uTrMPf2-13" vertex="1">
          <mxGeometry x="80" y="433.25" width="120" height="30" as="geometry" />
        </mxCell>
        <mxCell id="dHYF3nfBO12UTB2RZxej-3" value="&lt;font style=&quot;font-size: 10px;&quot;&gt;Gi0/0/0 :&lt;/font&gt;&lt;div&gt;&lt;font style=&quot;font-size: 10px;&quot;&gt;192.168.0.150&lt;/font&gt;&lt;/div&gt;" style="text;html=1;align=center;verticalAlign=middle;whiteSpace=wrap;rounded=0;" parent="1" vertex="1">
          <mxGeometry x="420" y="103.5" width="40" height="13.5" as="geometry" />
        </mxCell>
        <mxCell id="dHYF3nfBO12UTB2RZxej-4" value="&lt;font style=&quot;font-size: 10px;&quot;&gt;Gi0/0/1 : 172.30.200.1/30&lt;/font&gt;" style="text;html=1;align=left;verticalAlign=middle;whiteSpace=wrap;rounded=0;" parent="1" vertex="1">
          <mxGeometry x="522.5" y="155.5" width="147.5" height="13.5" as="geometry" />
        </mxCell>
        <mxCell id="haQOm0JPxAf6Th63QRBq-3" value="" style="swimlane;startSize=0;" parent="1" vertex="1">
          <mxGeometry x="15" y="569" width="820.5" height="60" as="geometry" />
        </mxCell>
        <mxCell id="haQOm0JPxAf6Th63QRBq-4" value="&lt;font size=&quot;1&quot; style=&quot;&quot;&gt;&lt;b style=&quot;font-size: 26px;&quot;&gt;Topologie de l&#39;agence 7&lt;/b&gt;&lt;/font&gt;" style="text;html=1;align=center;verticalAlign=middle;whiteSpace=wrap;rounded=0;fillColor=#f5f5f5;fontColor=#333333;strokeColor=#666666;" parent="haQOm0JPxAf6Th63QRBq-3" vertex="1">
          <mxGeometry width="330" height="60" as="geometry" />
        </mxCell>
        <mxCell id="haQOm0JPxAf6Th63QRBq-5" value="&lt;font style=&quot;font-size: 20px;&quot;&gt;Bruneau-Vangeebergen&lt;br&gt;//2024&lt;br&gt;&lt;/font&gt;" style="text;html=1;align=center;verticalAlign=middle;whiteSpace=wrap;rounded=0;fillColor=#f5f5f5;fontColor=#333333;strokeColor=#666666;" parent="haQOm0JPxAf6Th63QRBq-3" vertex="1">
          <mxGeometry x="550" width="270" height="60" as="geometry" />
        </mxCell>
        <mxCell id="haQOm0JPxAf6Th63QRBq-6" value="&lt;font style=&quot;font-size: 20px;&quot;&gt;Projet de cybersécurité&lt;br&gt;Version : 1.2&lt;br&gt;&lt;/font&gt;" style="text;html=1;align=center;verticalAlign=middle;whiteSpace=wrap;rounded=0;fillColor=#f5f5f5;fontColor=#333333;strokeColor=#666666;" parent="haQOm0JPxAf6Th63QRBq-3" vertex="1">
          <mxGeometry x="330" width="220" height="60" as="geometry" />
        </mxCell>
        <mxCell id="X5RCNkhInQuPxdokRD49-2" value="&lt;font style=&quot;font-size: 10px;&quot;&gt;Wan1 : 172.30.200.2/30&lt;/font&gt;" style="text;html=1;align=left;verticalAlign=middle;whiteSpace=wrap;rounded=0;" parent="1" vertex="1">
          <mxGeometry x="522.5" y="182" width="137.5" height="13.5" as="geometry" />
        </mxCell>
        <mxCell id="X5RCNkhInQuPxdokRD49-3" value="&lt;font style=&quot;font-size: 10px;&quot;&gt;DMZ :&lt;/font&gt;&lt;div&gt;&lt;font style=&quot;font-size: 10px;&quot;&gt;172.30.129/25&lt;/font&gt;&lt;/div&gt;" style="text;html=1;align=center;verticalAlign=middle;whiteSpace=wrap;rounded=0;" parent="1" vertex="1">
          <mxGeometry x="600" y="215.5" width="30" height="13.5" as="geometry" />
        </mxCell>
        <mxCell id="X5RCNkhInQuPxdokRD49-4" value="&lt;font style=&quot;font-size: 10px;&quot;&gt;Port2 : 172.30.0.254/24&lt;/font&gt;" style="text;html=1;align=left;verticalAlign=middle;whiteSpace=wrap;rounded=0;" parent="1" vertex="1">
          <mxGeometry x="522.5" y="291.5" width="147.5" height="13.5" as="geometry" />
        </mxCell>
        <mxCell id="7aTlp7P8qp-vYM0UI1pS-2" value="&lt;div style=&quot;font-family: &amp;quot;Droid Sans Mono&amp;quot;, &amp;quot;monospace&amp;quot;, monospace; line-height: 19px; white-space: pre;&quot;&gt;&lt;font color=&quot;#ffffff&quot; style=&quot;font-size: 9px;&quot;&gt;AG_7_S2_PD_P&lt;/font&gt;&lt;/div&gt;" style="text;html=1;strokeColor=none;fillColor=none;align=center;verticalAlign=middle;whiteSpace=wrap;rounded=0;" parent="1" vertex="1">
          <mxGeometry x="473.13" y="375" width="64.87" height="21" as="geometry" />
        </mxCell>
        <mxCell id="uZ83-FAW9KwHKVNxfOOf-2" value="&lt;div style=&quot;line-height: 19px;&quot;&gt;&lt;font size=&quot;1&quot; face=&quot;Droid Sans Mono, monospace, monospace&quot; color=&quot;#ffffff&quot;&gt;&lt;span style=&quot;white-space: pre; font-size: 9px;&quot;&gt;AG_7_RT_1_PD_P&lt;/span&gt;&lt;/font&gt;&lt;br&gt;&lt;/div&gt;" style="text;html=1;strokeColor=none;fillColor=none;align=center;verticalAlign=middle;whiteSpace=wrap;rounded=0;" parent="1" vertex="1">
          <mxGeometry x="486.06" y="129.25" width="64.87" height="21" as="geometry" />
        </mxCell>
        <mxCell id="uZ83-FAW9KwHKVNxfOOf-3" value="&lt;span style=&quot;font-size: 10px;&quot;&gt;&amp;nbsp;Gi1/0/24&lt;/span&gt;" style="text;html=1;align=left;verticalAlign=middle;whiteSpace=wrap;rounded=0;" parent="1" vertex="1">
          <mxGeometry x="522.5" y="330.25" width="147.5" height="13.5" as="geometry" />
        </mxCell>
        <mxCell id="uZ83-FAW9KwHKVNxfOOf-4" value="&lt;span style=&quot;font-size: 10px;&quot;&gt;&amp;nbsp;Gi1/0/1-10&lt;/span&gt;" style="text;html=1;align=left;verticalAlign=middle;whiteSpace=wrap;rounded=0;" parent="1" vertex="1">
          <mxGeometry x="408" y="374.5" width="60" height="13.5" as="geometry" />
        </mxCell>
        <mxCell id="uZ83-FAW9KwHKVNxfOOf-7" value="" style="shape=mxgraph.cisco.computers_and_peripherals.macintosh;sketch=0;html=1;pointerEvents=1;dashed=0;fillColor=#036897;strokeColor=#ffffff;strokeWidth=2;verticalLabelPosition=bottom;verticalAlign=top;align=center;outlineConnect=0;" parent="1" vertex="1">
          <mxGeometry x="468.76" y="453.5" width="99" height="64" as="geometry" />
        </mxCell>
        <mxCell id="uZ83-FAW9KwHKVNxfOOf-8" style="edgeStyle=orthogonalEdgeStyle;rounded=0;orthogonalLoop=1;jettySize=auto;html=1;exitX=0.5;exitY=0.01;exitDx=0;exitDy=0;exitPerimeter=0;entryX=0.5;entryY=0.98;entryDx=0;entryDy=0;entryPerimeter=0;endArrow=none;endFill=0;" parent="1" source="uZ83-FAW9KwHKVNxfOOf-7" target="XlUpvViyqWthu9aLgR9a-4" edge="1">
          <mxGeometry relative="1" as="geometry" />
        </mxCell>
        <mxCell id="uZ83-FAW9KwHKVNxfOOf-9" value="&lt;font style=&quot;font-size: 10px;&quot; color=&quot;#ffffff&quot;&gt;Admins&lt;/font&gt;&lt;div style=&quot;line-height: 70%;&quot;&gt;&lt;font style=&quot;font-size: 10px;&quot; color=&quot;#ffffff&quot;&gt;PCs&lt;/font&gt;&lt;/div&gt;" style="text;html=1;strokeColor=none;fillColor=none;align=center;verticalAlign=middle;whiteSpace=wrap;rounded=0;" parent="1" vertex="1">
          <mxGeometry x="491.93" y="462" width="60" height="30" as="geometry" />
        </mxCell>
        <mxCell id="uZ83-FAW9KwHKVNxfOOf-10" value="&lt;div style=&quot;font-family: &amp;quot;Droid Sans Mono&amp;quot;, &amp;quot;monospace&amp;quot;, monospace; line-height: 19px; white-space: pre;&quot;&gt;&lt;font style=&quot;font-size: 9px; background-color: rgb(255, 255, 255);&quot;&gt;AG_7_FW_1_PD_P&lt;/font&gt;&lt;/div&gt;" style="text;html=1;strokeColor=none;fillColor=none;align=center;verticalAlign=middle;whiteSpace=wrap;rounded=0;" parent="1" vertex="1">
          <mxGeometry x="487.06" y="269.5" width="64.87" height="21" as="geometry" />
        </mxCell>
        <mxCell id="uZ83-FAW9KwHKVNxfOOf-12" value="&lt;div&gt;&lt;font style=&quot;font-size: 10px;&quot;&gt;Wan2 :&lt;/font&gt;&lt;/div&gt;&lt;div&gt;&lt;font style=&quot;font-size: 10px;&quot;&gt;192.168.1.30/24&lt;/font&gt;&lt;/div&gt;" style="text;html=1;align=center;verticalAlign=middle;whiteSpace=wrap;rounded=0;" parent="1" vertex="1">
          <mxGeometry x="409.13" y="215.5" width="40" height="13.5" as="geometry" />
        </mxCell>
        <mxCell id="3-DSy0gv2eE89le8RWpR-1" value="&lt;span style=&quot;font-size: 10px;&quot;&gt;&amp;nbsp;Gi1/0/11-20&lt;/span&gt;" style="text;html=1;align=left;verticalAlign=middle;whiteSpace=wrap;rounded=0;" parent="1" vertex="1">
          <mxGeometry x="570" y="374.5" width="60" height="13.5" as="geometry" />
        </mxCell>
        <mxCell id="3-DSy0gv2eE89le8RWpR-2" value="&lt;span style=&quot;font-size: 10px;&quot;&gt;&amp;nbsp;Gi1/0/21-23&lt;/span&gt;" style="text;html=1;align=left;verticalAlign=middle;whiteSpace=wrap;rounded=0;" parent="1" vertex="1">
          <mxGeometry x="460" y="400" width="60" height="13.5" as="geometry" />
        </mxCell>
      </root>
    </mxGraphModel>
  </diagram>
</mxfile>
